<svg xmlns="http://www.w3.org/2000/svg" version="1.1" xmlns:xlink="http://www.w3.org/1999/xlink" xmlns:svgjs="http://svgjs.dev/svgjs" viewBox="0 0 1422 800"><defs><filter id="uuunion-blur" x="-100%" y="-100%" width="400%" height="400%" color-interpolation-filters="sRGB">
        <feGaussianBlur in="SourceGraphic" stdDeviation="7.5 0" result="blur"></feGaussianBlur>
        <feDropShadow stdDeviation="80" in="blur" dx="65" dy="65" flood-color="hsl(180, 69%, 40%)" flood-opacity="0" x="0%" y="0%" width="100%" height="100%"></feDropShadow>
      </filter><filter id="uuunion-blur2" x="-100%" y="-100%" width="400%" height="400%" color-interpolation-filters="sRGB">
        <feGaussianBlur in="SourceGraphic" stdDeviation="7.5 0" result="blur"></feGaussianBlur>
        <feDropShadow stdDeviation="80" in="blur" dx="-65" dy="-65" flood-color="hsl(180, 69%, 40%)" flood-opacity="0" x="0%" y="0%" width="100%" height="100%"></feDropShadow>
      </filter><linearGradient gradientTransform="rotate(0, 0.5, 0.5)" x1="50%" y1="0%" x2="50%" y2="100%" id="uuunion-grad"><stop stop-color="hsl(180, 69%, 60%)" offset="10%"></stop><stop stop-color="hsl(180, 69%, 40%)" offset="90%"></stop></linearGradient><linearGradient gradientTransform="rotate(96, 0.5, 0.5)" x1="50%" y1="0%" x2="50%" y2="100%" id="uuunion-grad2"><stop stop-color="hsl(180, 69%, 60%)" offset="25%"></stop><stop stop-color="hsl(180, 69%, 40%)" offset="100%"></stop></linearGradient><linearGradient gradientTransform="rotate(134, 0.5, 0.5)" x1="50%" y1="0%" x2="50%" y2="100%" id="uuunion-grad3"><stop stop-color="hsl(180, 69%, 60%)" offset="0%"></stop><stop stop-color="hsl(180, 69%, 40%)" offset="75%"></stop></linearGradient></defs><path d="M-108.4 -84.49Q-96.09 -84.24 -83.78 -83.63 -71.47 -82.72 -59.16 -81.58 -46.85 -80.32 -34.54 -79.02 -22.24 -77.8 -9.93 -76.77 2.37 -76.01 14.68 -75.58 26.99 -75.52 39.3 -75.83 51.61 -76.49 63.92 -77.44 76.23 -78.6 88.54 -79.88 100.85 -81.17 113.15 -82.36 125.46 -83.36 137.77 -84.07 150.08 -84.45 162.39 -84.45 174.7 -84.08 187.01 -83.37 199.32 -82.38 211.63 -81.19 223.94 -79.9 236.24 -78.62 248.55 -77.45 260.86 -76.5 273.17 -75.83 285.48 -75.52 297.79 -75.58 310.1 -76 322.41 -76.76 334.72 -77.79 347.03 -79 359.34 -80.3 371.64 -81.57 383.95 -82.71 396.26 -83.62 408.57 -84.23 420.88 -84.49 433.19 -84.37 445.5 -83.89 457.81 -83.08 470.12 -82.02 482.43 -80.78 494.74 -79.48 507.04 -78.23 519.35 -77.12 531.66 -76.25 543.97 -75.69 556.28 -75.5 568.59 -75.67 580.9 -76.21 593.21 -77.06 605.52 -78.16 617.83 -79.41 630.14 -80.71 642.44 -81.95 654.75 -83.03 667.06 -83.85 679.37 -84.35 691.68 -84.49 703.99 -84.25 716.3 -83.66 728.61 -82.76 740.92 -81.64 753.23 -80.37 765.54 -79.07 777.85 -77.85 790.15 -76.81 802.46 -76.03 814.77 -75.59 827.08 -75.51 839.39 -75.81 851.7 -76.45 864.01 -77.39 876.32 -78.55 888.63 -79.83 900.94 -81.12 913.25 -82.32 925.55 -83.32 937.86 -84.05 950.17 -84.44 962.48 -84.46 974.79 -84.1 987.1 -83.41 999.41 -82.42 1011.72 -81.24 1024.03 -79.95 1036.34 -78.67 1048.65 -77.5 1060.96 -76.53 1073.26 -75.85 1085.57 -75.52 1097.88 -75.57 1110.19 -75.98 1122.5 -76.72 1134.81 -77.74 1147.12 -78.95 1159.43 -80.24 1171.74 -81.52 1184.05 -82.66 1196.36 -83.59 1208.66 -84.21 1220.97 -84.49 1233.28 -84.38 1245.59 -83.91 1257.9 -83.12 1270.21 -82.06 1282.52 -80.84 1294.83 -79.54 1307.14 -78.28 1319.45 -77.16 1331.76 -76.28 1344.07 -75.71 1356.37 -75.5 1368.68 -75.66 1380.99 -76.18 1393.3 -77.02 1405.61 -78.11 1417.92 -79.36 1430.23 -80.66 1442.54 -81.9 1454.85 -82.99 1467.16 -83.82 1463.12 -69.7 1471.25 -55.58 1490.58 -41.46 1518.78 -27.33 1552.45 -13.21 1587.53 0.9 1619.8 15.02 1645.38 29.15 1661.17 43.27 1665.29 57.39 1657.22 71.51 1637.95 85.64 1609.8 99.76 1576.15 113.88 1541.06 128 1508.76 142.13 1483.14 156.25 1467.28 170.37 1463.09 184.49 1471.09 198.62 1490.3 212.74 1518.41 226.86 1552.03 240.98 1587.13 255.11 1619.46 269.23 1645.13 283.35 1661.05 297.47 1665.31 311.6 1657.39 325.72 1638.24 339.84 1610.17 353.97 1576.56 368.09 1541.47 382.21 1509.11 396.33 1483.39 410.46 1467.4 424.58 1463.07 438.7 1470.92 452.82 1490.01 466.95 1518.04 481.07 1551.62 495.19 1586.72 509.31 1619.11 523.44 1644.88 537.56 1660.93 551.68 1665.33 565.8 1657.55 579.93 1638.52 594.05 1610.54 608.17 1576.98 622.29 1541.87 636.42 1509.46 650.54 1483.64 664.66 1467.52 678.78 1463.05 692.91 1470.76 707.03 1489.73 721.15 1517.67 735.27 1551.21 749.4 1586.31 763.52 1618.75 777.64 1644.62 791.76 1660.81 805.89 1665.35 820.01 1650.95 833.1 1636.56 850.09 1622.16 869.59 1607.76 889.95 1593.37 909.48 1578.97 926.55 1564.57 939.74 1550.18 947.94 1535.78 950.48 1521.38 947.14 1506.99 938.2 1492.59 924.41 1478.19 906.91 1463.8 887.17 1449.4 866.82 1435 847.58 1420.61 831.04 1406.21 818.59 1391.81 811.25 1377.42 809.65 1363.02 813.92 1348.62 823.69 1334.23 838.17 1319.83 856.13 1305.43 876.08 1291.04 896.36 1276.64 915.27 1262.24 931.24 1247.85 942.94 1233.45 949.39 1219.05 950.05 1204.66 944.87 1190.26 934.27 1175.86 919.15 1161.47 900.77 1147.07 880.65 1132.67 860.48 1118.28 841.93 1103.88 826.56 1089.48 815.65 1075.09 810.1 1060.69 810.38 1046.29 816.47 1031.9 827.86 1017.5 843.59 1003.1 862.36 988.71 882.61 974.31 902.63 959.91 920.77 945.52 935.5 931.12 945.61 916.72 950.24 902.33 949.02 887.93 942.04 873.53 929.88 859.14 913.56 844.74 894.45 830.34 874.13 815.95 854.29 801.55 836.61 787.15 822.54 772.76 813.26 758.36 809.55 743.96 811.71 729.57 819.57 715.17 832.47 700.77 849.33 686.38 868.75 671.98 889.11 657.59 908.71 643.19 925.91 628.79 939.28 614.4 947.71 600 950.49 585.6 947.39 571.21 938.67 556.81 925.06 542.41 907.69 528.02 888.01 513.62 867.66 499.22 848.34 484.83 831.65 470.43 819.01 456.03 811.44 441.64 809.6 427.24 813.62 412.84 823.19 398.45 837.49 384.05 855.33 369.65 875.23 355.26 895.53 340.86 914.54 326.46 930.66 312.07 942.56 297.67 949.23 283.27 950.14 268.88 945.19 254.48 934.81 240.08 919.86 225.69 901.58 211.29 881.5 196.89 861.29 182.5 842.65 168.1 827.12 153.71 816 139.31 810.22 124.91 810.25 110.52 816.11 96.12 827.29 81.72 842.87 67.33 861.54 52.93 881.76 38.53 901.82 24.14 920.07 9.74 934.97 -4.65 945.29 -19.04 950.17 -33.44 949.19 -47.84 942.44 -62.23 930.48 -76.63 914.31 -91.03 895.28 -105.42 874.98 -119.82 855.09 -134.22 837.28 -148.61 823.03 -163.01 813.54 -177.4 809.58 -175.82 795.61 -170.19 781.64 -161.18 767.67 -149.89 753.7 -137.66 739.73 -125.98 725.76 -116.26 711.79 -109.65 697.82 -106.97 683.85 -108.53 669.88 -114.14 655.91 -123.13 641.94 -134.41 627.97 -146.64 614 -158.32 600.03 -168.06 586.06 -174.69 572.09 -177.4 558.12 -175.87 544.15 -170.28 530.18 -161.3 516.21 -150.03 502.24 -137.81 488.27 -126.11 474.3 -116.36 460.33 -109.71 446.36 -106.98 432.39 -108.48 418.42 -114.05 404.45 -123.01 390.48 -134.27 376.51 -146.49 362.54 -158.19 348.57 -167.96 334.6 -174.63 320.63 -177.39 306.66 -175.91 292.69 -170.36 278.72 -161.43 264.75 -150.17 250.78 -137.95 236.81 -126.24 222.84 -116.45 208.87 -109.77 194.9 -106.98 180.93 -108.44 166.96 -113.96 152.99 -122.88 139.02 -134.13 125.05 -146.35 111.08 -158.06 97.11 -167.87 83.14 -174.57 69.17 -177.38 55.2 -175.95 41.23 -170.45 27.26 -161.55 13.29 -150.31 -0.67 -138.09 -14.64 -126.37 -28.61 -116.55 -42.58 -109.82 -56.55 -106.99 -70.52 -108.4 -84.49" fill="url(#uuunion-grad)"></path><path d="M-108.41 -84.49Q-107 -70.52 -109.83 -56.55 -116.56 -42.58 -126.38 -28.61 -138.1 -14.64 -150.32 -0.67 -161.56 13.29 -170.46 27.26 -175.96 41.23 -177.39 55.2 -174.59 69.17 -167.88 83.14 -158.07 97.11 -146.36 111.08 -134.14 125.05 -122.89 139.02 -113.97 152.99 -108.45 166.96 -106.99 180.93 -109.78 194.9 -116.46 208.87 -126.25 222.84 -137.96 236.81 -150.18 250.78 -161.44 264.75 -170.37 278.72 -175.92 292.69 -177.4 306.66 -174.64 320.63 -167.98 334.6 -158.2 348.57 -146.5 362.54 -137.53 363.6 -128.55 366.01 -119.58 369.69 -110.6 374.5 -101.63 380.25 -92.66 386.74 -83.68 393.72 -74.71 400.94 -65.73 408.12 -56.76 415 -47.78 421.32 -38.81 426.84 -29.83 431.37 -20.86 434.73 -3.9 437.3 -0.9 437.46 8.65 432.66 18.37 425.81 28.23 417.16 38.26 407.05 48.45 395.89 58.8 384.16 69.31 372.36 79.98 361 90.8 350.54 101.78 341.4 112.9 333.91 124.15 328.3 135.53 324.69 147.03 323.08 158.64 323.36 170.35 325.31 182.14 328.63 194 332.91 205.92 337.72 217.89 342.6 229.89 347.08 241.9 350.73 253.92 353.17 265.92 354.09 277.9 353.29 289.84 350.64 301.73 346.16 313.55 339.93 325.3 332.16 336.96 323.15 348.52 313.24 359.98 302.85 371.32 292.39 382.54 282.29 393.63 272.95 404.59 264.72 415.41 257.87 426.1 252.6 436.64 249.01 447.05 247.1 457.33 246.78 467.47 247.86 477.49 250.08 487.39 253.12 497.17 256.6 506.86 260.14 516.44 263.35 525.95 265.88 535.39 267.4 544.76 267.67 554.1 266.5 563.41 263.82 572.71 259.61 582.01 253.97 591.33 247.07 600.69 239.13 610.11 230.46 619.6 221.4 629.17 212.28 638.86 203.45 648.66 195.25 658.61 187.94 668.7 181.76 678.97 176.87 689.42 173.34 700.06 171.16 710.91 170.27 721.98 170.51 733.27 171.66 744.8 173.47 756.56 175.62 768.57 177.82 780.83 179.76 793.34 181.14 806.09 181.72 819.09 181.3 832.33 179.74 845.8 176.99 859.5 173.03 873.42 167.94 887.54 161.87 901.86 154.99 916.36 147.55 931.02 139.8 945.82 132.02 960.74 124.48 975.77 117.43 990.88 111.08 1006.05 105.6 1021.25 101.11 1036.47 97.67 1051.67 95.27 1066.82 93.84 1081.91 93.26 1096.9 93.36 1111.77 93.95 1126.5 94.79 1141.05 95.65 1155.39 96.29 1169.52 96.52 1183.39 96.13 1196.99 95 1210.3 93.02 1223.29 90.15 1235.95 86.41 1248.26 81.84 1260.19 76.57 1271.75 70.73 1282.91 64.5 1293.68 58.06 1304.03 51.63 1313.96 45.38 1323.48 39.49 1332.58 34.12 1341.26 29.37 1349.53 25.32 1364.69 19.74 1378.71 16.1 1399.28 13.8 1412.57 12.01 1417.36 10.64 1422 8.76 1386.42 -9.79 1356.65 -28.34 1337.56 -46.9 1332.26 -65.45 1341.62 -84 1364.11 -102.56 1396.06 -121.11 1432.24 -139.67 1419.81 -139.73 1407.39 -139.8 1394.96 -139.9 1382.54 -140 1370.12 -140.1 1357.69 -140.19 1345.27 -140.27 1332.84 -140.32 1320.42 -140.36 1307.99 -140.37 1295.57 -140.35 1283.14 -140.31 1270.72 -140.25 1258.29 -140.16 1245.87 -140.07 1233.44 -139.97 1221.02 -139.87 1208.59 -139.78 1196.17 -139.71 1183.74 -139.65 1171.32 -139.62 1158.89 -139.62 1146.47 -139.65 1134.04 -139.7 1121.62 -139.77 1109.2 -139.85 1096.77 -139.95 1084.35 -140.05 1071.92 -140.14 1059.5 -140.23 1047.07 -140.3 1034.65 -140.35 1022.22 -140.37 1009.8 -140.36 997.37 -140.33 984.95 -140.28 972.52 -140.2 960.1 -140.11 947.67 -140.02 935.25 -139.92 922.82 -139.82 910.4 -139.74 897.97 -139.68 885.55 -139.64 873.12 -139.62 860.7 -139.63 848.28 -139.67 835.85 -139.73 823.43 -139.81 811 -139.9 798.58 -140 786.15 -140.1 773.73 -140.19 761.3 -140.27 748.88 -140.33 736.45 -140.36 724.03 -140.37 711.6 -140.35 699.18 -140.31 686.75 -140.24 674.33 -140.16 661.9 -140.06 649.48 -139.96 637.05 -139.86 624.63 -139.78 612.2 -139.7 599.78 -139.65 587.35 -139.62 574.93 -139.62 562.51 -139.65 550.08 -139.7 537.66 -139.77 525.23 -139.86 512.81 -139.95 500.38 -140.05 487.96 -140.15 475.53 -140.23 463.11 -140.3 450.68 -140.35 438.26 -140.37 425.83 -140.36 413.41 -140.33 400.98 -140.27 388.56 -140.2 376.13 -140.11 363.71 -140.01 351.28 -139.91 338.86 -139.82 326.43 -139.74 314.01 -139.67 301.59 -139.63 289.16 -139.62 276.74 -139.63 264.31 -139.67 251.89 -139.73 239.46 -139.81 227.04 -139.91 214.61 -140.01 202.19 -140.11 189.76 -140.2 177.34 -140.27 164.91 -140.33 152.49 -140.36 140.06 -140.37 127.64 -140.35 115.21 -140.3 102.79 -140.24 90.36 -140.15 77.94 -140.06 65.51 -139.96 53.09 -139.86 40.67 -139.77 28.24 -139.7 15.82 -139.65 3.39 -139.62 -9.02 -139.62 -21.45 -139.65 -33.87 -139.7 -46.3 -139.77 -58.72 -139.86 -71.15 -139.96 -83.57 -140.06 -96 -140.15 -108.42 -140.24 -120.85 -140.31 -133.27 -140.35 -144.19 -133.38 -128.41 -112.43 -116.65 -98.46 -108.41 -84.49" fill="url(#uuunion-grad2)" filter="url(#uuunion-blur)"></path><path d="M1504.35 348.03Q1513.89 350.47 1523.43 351.78 1532.97 351.9 1542.51 350.84 1552.04 348.62 1561.58 345.35 1571.12 341.12 1580.66 336.12 1590.2 330.51 1599.74 324.51 1609.28 318.34 1618.82 312.24 1628.36 306.42 1637.9 301.11 1656.44 302.87 1657.39 325.72 1634.1 342.2 1599.39 358.67 1558.94 375.15 1519.34 391.63 1487.07 408.1 1467.4 424.58 1463.54 441.05 1476.13 457.53 1503.1 474.01 1540.05 490.48 1580.95 506.96 1619.11 523.44 1648.3 539.91 1663.75 556.39 1662.94 572.86 1646 589.34 1615.69 605.82 1576.98 622.29 1536.17 638.77 1499.95 655.25 1474.22 671.72 1463.18 688.2 1468.65 704.68 1489.73 721.15 1522.97 737.63 1562.94 754.1 1603.12 770.58 1636.94 787.06 1658.88 803.53 1665.35 820.01 1652.14 831.85 1638.94 847.07 1625.73 864.6 1612.53 883.22 1599.32 901.6 1586.12 918.47 1572.91 932.64 1559.71 943.11 1546.5 949.15 1533.3 950.32 1520.09 946.56 1506.88 938.12 1493.68 925.6 1480.47 909.87 1467.27 892.05 1454.06 873.37 1440.86 855.17 1427.65 838.71 1414.45 825.14 1401.24 815.43 1388.04 810.26 1374.83 809.99 1361.63 814.63 1348.42 823.87 1335.21 837.04 1322.01 853.24 1308.8 871.32 1295.6 890 1282.39 907.98 1269.19 924 1255.98 936.92 1242.78 945.85 1229.57 950.15 1216.37 949.52 1203.16 944.01 1189.96 934 1176.75 920.19 1163.54 903.57 1150.34 885.28 1137.13 866.63 1123.93 848.91 1110.72 833.38 1097.52 821.12 1084.31 813 1071.11 809.59 1057.9 811.12 1044.7 817.49 1031.49 828.25 1018.29 842.64 1005.08 859.66 991.87 878.11 978.67 896.69 965.46 914.1 952.26 929.11 939.05 940.67 925.85 947.97 912.64 950.49 899.44 948.07 886.23 940.85 873.03 929.37 859.82 914.41 846.62 897.04 833.41 878.47 820.2 860.01 807 842.95 793.79 828.49 780.59 817.65 767.38 811.19 754.18 809.57 740.97 812.89 727.77 820.93 714.56 833.11 701.36 848.59 688.15 866.28 674.94 884.92 661.74 903.23 648.53 919.9 635.33 933.76 622.12 943.85 608.92 949.46 595.71 950.18 582.51 945.98 569.3 937.13 556.1 924.28 542.89 908.31 529.69 890.36 516.48 871.67 503.27 853.57 490.07 837.33 476.86 824.08 463.66 814.77 450.45 810.03 437.25 810.21 424.04 815.29 410.84 824.92 397.63 838.41 384.43 854.83 371.22 873.02 358.02 891.69 344.81 909.55 331.6 925.32 318.4 937.92 305.19 946.44 291.99 950.3 278.78 949.21 265.58 943.27 252.37 932.88 239.17 918.77 225.96 901.95 212.76 883.57 199.55 864.95 186.35 847.39 173.14 832.11 159.93 820.2 146.73 812.49 133.52 809.52 120.32 811.5 107.11 818.3 93.91 829.43 80.7 844.11 67.5 861.31 54.29 879.82 41.09 898.35 27.88 915.59 14.68 930.32 1.47 941.53 -18.13 944.1 -22.87 929.1 -20.03 918.42 -16.16 907.73 -11.48 897.04 -6.23 886.35 2.29 870.33 5.79 865 21.2 855.95 36.16 842.39 50.64 824.93 64.62 804.43 78.09 781.98 91.07 758.77 103.58 736.08 115.66 715.08 127.37 696.83 138.76 682.17 149.9 671.67 160.85 665.58 171.69 663.82 182.49 666 193.33 671.45 204.25 679.27 215.34 688.4 226.62 697.69 238.15 706 249.96 712.29 262.05 715.67 274.44 715.48 287.12 711.33 300.06 703.13 313.25 691.09 326.63 675.69 340.17 657.64 353.79 637.86 367.45 617.36 381.08 597.19 394.61 578.36 407.98 561.77 421.13 548.15 434 537.97 446.55 531.47 458.74 528.6 470.54 529.06 481.95 532.29 492.96 537.56 503.58 543.99 513.85 550.63 523.79 556.53 533.48 560.83 542.96 562.78 552.32 561.82 561.65 557.63 571.02 550.11 580.54 539.41 590.3 525.93 600.38 510.25 610.9 493.09 621.91 475.28 633.5 457.69 645.74 441.12 658.65 426.33 672.29 413.89 686.65 404.2 701.75 397.47 717.54 393.67 733.99 392.55 751.04 393.68 768.61 396.47 786.6 400.23 804.9 404.21 815.89 410.65 826.92 416.53 837.99 421.53 849.09 425.38 860.23 427.86 871.41 428.81 882.62 428.14 893.85 425.82 905.12 421.92 916.41 416.56 927.73 409.93 939.07 402.28 950.43 393.89 961.82 385.08 973.22 376.19 984.63 367.56 996.06 359.52 1007.5 352.37 1018.94 346.35 1030.4 341.69 1041.85 338.52 1053.31 336.93 1064.77 336.91 1076.23 338.41 1087.68 341.3 1099.12 345.39 1110.55 350.43 1121.97 356.15 1133.37 362.22 1144.76 368.32 1156.12 374.13 1167.46 379.34 1178.78 383.65 1190.07 386.83 1201.33 388.68 1212.55 389.09 1223.75 387.97 1234.9 385.33 1246.01 381.24 1257.08 375.83 1268.11 369.3 1279.08 361.89 1290.01 353.86 1300.89 345.54 1311.71 337.22 1322.47 329.23 1333.18 321.86 1343.83 315.39 1354.41 310.03 1364.93 305.97 1375.38 303.32 1385.76 302.14 1396.07 302.42 1406.31 304.08 1416.47 306.98 1426.56 310.94 1436.57 315.72 1446.5 321.04 1456.35 326.62 1466.12 332.14 1475.81 337.31 1485.41 341.85 1494.92 345.49 1504.35 348.03" fill="url(#uuunion-grad3)" filter="url(#uuunion-blur2)"></path></svg>